<?xml version="1.0" encoding="UTF-8"?>
<svg id="Layer_2" data-name="Layer 2" xmlns="http://www.w3.org/2000/svg" viewBox="0 0 12.64 11.12">
  <defs>
    <style>
      .cls-1 {
        fill: #323338;
      }
    </style>
  </defs>
  <g id="Layer_1-2">
    <g>
      <path class="cls-1" d="M6.2,4.95H.98c-.54,0-.98-.44-.98-.98V1.07C0,.53.44.09.98.09h5.22c.54,0,.98.44.98.98v2.9c0,.54-.44.98-.98.98ZM.98.89c-.1,0-.18.08-.18.18v2.9c0,.1.08.18.18.18h5.22c.1,0,.18-.08.18-.18V1.07c0-.1-.08-.18-.18-.18H.98Z"/>
      <path class="cls-1" d="M6.15,11.13h-1.64c-.57,0-1.04-.47-1.04-1.04v-2.78c0-.57.47-1.04,1.04-1.04h1.64c.57,0,1.04.47,1.04,1.04v2.78c0,.57-.47,1.04-1.04,1.04ZM4.51,7.07c-.13,0-.24.11-.24.24v2.78c0,.13.11.24.24.24h1.64c.13,0,.24-.11.24-.24v-2.78c0-.13-.11-.24-.24-.24h-1.64Z"/>
      <path class="cls-1" d="M11.61,8.84h-2.21c-.57,0-1.03-.46-1.03-1.03V1.03c0-.57.46-1.03,1.03-1.03h2.21c.57,0,1.03.46,1.03,1.03v6.78c0,.57-.46,1.03-1.03,1.03ZM9.4.8c-.13,0-.23.1-.23.23v6.78c0,.13.1.23.23.23h2.21c.13,0,.23-.1.23-.23V1.03c0-.13-.1-.23-.23-.23h-2.21Z"/>
    </g>
  </g>
</svg>
