<?xml version="1.0" encoding="UTF-8"?>
<svg id="Layer_2" data-name="Layer 2" xmlns="http://www.w3.org/2000/svg" viewBox="0 0 12.54 11.02">
  <defs>
    <style>
      .cls-1 {
        fill: #0053E5;
      }
    </style>
  </defs>
  <g id="Layer_6">
    <g>
      <path class="cls-1" d="M.93.09h5.23c.51,0,.92.41.92.92v2.91c0,.51-.41.93-.93.93H.92c-.51,0-.92-.41-.92-.92V1.01C0,.5.41.09.93.09Z"/>
      <path class="cls-1" d="M6.09,6.27h-1.63c-.55,0-.99.44-.99.99v2.77c0,.55.44.99.99.99h1.63c.55,0,.99-.44.99-.99v-2.77c0-.55-.44-.99-.99-.99ZM6.38,10.03c0,.16-.13.29-.29.29h-1.63c-.16,0-.29-.13-.29-.29v-2.77c0-.16.13-.29.29-.29h1.63c.16,0,.29.13.29.29v2.77Z"/>
      <path class="cls-1" d="M11.56,0h-2.21c-.54,0-.98.44-.98.98v6.78c0,.54.44.98.98.98h2.21c.54,0,.98-.44.98-.98V.98c0-.54-.44-.98-.98-.98ZM11.84,7.76c0,.15-.13.28-.28.28h-2.21c-.15,0-.28-.12-.28-.28V.98c0-.15.13-.28.28-.28h2.21c.15,0,.28.12.28.28v6.78Z"/>
    </g>
  </g>
</svg>
