<?xml version="1.0" encoding="UTF-8"?>
<svg id="Layer_2" data-name="Layer 2" xmlns="http://www.w3.org/2000/svg" viewBox="0 0 13.09 12.5">
  <defs>
    <style>
      .cls-1 {
        fill: #0053E5;
      }
    </style>
  </defs>
  <g id="Layer_7" >
    <path class="cls-1" d="M12.74,2.59c-.25.08-.36.2-.45.45l-.03.1c-.11.42-.19.7-.5.86-.11.06-.24.08-.36.08s-.25-.03-.36-.08c-.32-.16-.39-.44-.51-.87l-.03-.1c-.08-.25-.2-.36-.45-.45l-.1-.03c-.42-.11-.7-.19-.86-.5-.11-.22-.11-.5,0-.73.16-.32.44-.39.87-.51l.1-.03c.25-.08.36-.2.45-.45,0-.03.02-.07.03-.13.02-.06.03-.11.04-.16H1.66C.74.06,0,.83,0,1.77v9.03c0,.94.74,1.71,1.66,1.71h.23c.02-1.78,1.35-3.23,2.98-3.23h3.24c1.63,0,2.96,1.45,2.98,3.23.91,0,1.66-.77,1.66-1.71V2.58h-.02ZM7.16,7.83c-1.14.43-2.41-.14-2.85-1.28-.43-1.14.14-2.41,1.28-2.85,1.14-.43,2.41.14,2.85,1.28.43,1.14-.14,2.41-1.28,2.85Z"/>
    <path class="cls-1" d="M11.61.52c-.05-.15-.09-.3-.13-.47-.02-.04-.06-.05-.1-.04-.01,0-.04.01-.05.02-.04.04-.13.45-.16.54-.15.45-.43.74-.88.89-.04.02-.18.05-.31.09-.13.04-.25.07-.26.1-.01.03-.01.07,0,.1,0,.01.04.03.08.04.09.03.24.07.35.1.05.01.1.03.12.03.45.15.74.43.89.88.03.09.14.55.18.57.03.01.07.01.1,0,.02-.01.06-.13.1-.26s.07-.26.08-.3c.15-.45.43-.74.88-.89.04-.02.18-.05.31-.09.13-.04.25-.07.26-.1.01-.03.01-.07,0-.1-.02-.05-.47-.15-.56-.18-.53-.18-.76-.51-.91-.94Z"/>
  </g>
</svg>
