<?xml version="1.0" encoding="UTF-8"?>
<svg id="Layer_2" data-name="Layer 2" xmlns="http://www.w3.org/2000/svg" viewBox="0 0 13.19 12.64">
  <defs>
    <style>
      .cls-1 {
        fill: #323338;
      }
    </style>
  </defs>
  <g id="Layer_1-2">
    <g>
      <g>
        <path class="cls-1" d="M11.2,12.65H1.76c-.97,0-1.76-.81-1.76-1.81V1.81C0,.81.79,0,1.76,0h7.05c.22,0,.4.18.4.4s-.18.4-.4.4H1.76c-.53,0-.96.45-.96,1.01v9.03c0,.56.43,1.01.96,1.01h9.44c.53,0,.96-.45.96-1.01v-6.48c0-.22.18-.4.4-.4s.4.18.4.4v6.48c0,1-.79,1.81-1.76,1.81Z"/>
        <path class="cls-1" d="M6.48,8.05c-1.44,0-2.61-1.17-2.61-2.61s1.17-2.61,2.61-2.61,2.61,1.17,2.61,2.61-1.17,2.61-2.61,2.61ZM6.48,3.63c-1,0-1.81.81-1.81,1.81s.81,1.81,1.81,1.81,1.81-.81,1.81-1.81-.81-1.81-1.81-1.81Z"/>
        <path class="cls-1" d="M10.77,12.49c-.22,0-.4-.18-.4-.4,0-1.31-1.07-2.38-2.38-2.38h-3.02c-1.31,0-2.38,1.07-2.38,2.38,0,.22-.18.4-.4.4s-.4-.18-.4-.4c0-1.75,1.43-3.18,3.18-3.18h3.02c1.75,0,3.18,1.43,3.18,3.18,0,.22-.18.4-.4.4Z"/>
      </g>
      <path class="cls-1" d="M11.48.04s.08,0,.1.04c.16.68.34,1.18,1.05,1.42.09.03.53.13.56.18.01.03.01.07,0,.1-.02.05-.48.15-.57.18-.45.16-.73.44-.88.89-.03.09-.13.53-.18.56-.03,0-.07,0-.1,0-.05-.02-.15-.48-.18-.57-.16-.45-.44-.73-.89-.88-.09-.03-.53-.13-.56-.18-.01-.03-.01-.07,0-.1.02-.05.48-.15.57-.18.45-.16.73-.44.88-.89.03-.09.12-.5.16-.54.01,0,.03-.02.05-.02h0Z"/>
    </g>
  </g>
</svg>
