<?xml version="1.0" encoding="UTF-8"?>
<svg id="Layer_2" data-name="Layer 2" xmlns="http://www.w3.org/2000/svg" viewBox="0 0 12.37 12.84">
  <defs>
    <style>
      .cls-1 {
        fill: #323338;
      }
    </style>
  </defs>
  <g id="Layer_1-2">
    <g>
      <path class="cls-1" d="M1.75,12.83c-.22,0-.45-.06-.64-.18-.29-.18-.49-.47-.55-.81L.02,9.06c-.06-.29,0-.61.16-.88L4.92.57C5.28,0,6.04-.18,6.6.18l3.29,2.05c.57.36.74,1.12.39,1.68l-5,8.02-.08-.07c-.12.09-.25.15-.4.18l-2.73.74c-.11.03-.22.04-.33.04ZM5.96.8c-.14,0-.28.07-.36.2L.86,8.6c-.06.09-.08.2-.06.3l.54,2.79c.02.12.09.21.19.28.1.06.22.08.33.05l2.74-.74c.1-.03.19-.09.24-.18l.26-.42h.01s4.48-7.18,4.48-7.18c.12-.19.06-.46-.13-.58L6.18.86c-.07-.04-.14-.06-.22-.06ZM2.98,10.72c-.2,0-.39-.05-.56-.16-.24-.15-.41-.38-.47-.66-.06-.27-.02-.56.13-.8.3-.5.96-.65,1.46-.34.5.31.65.96.34,1.46-.15.24-.38.41-.65.47-.08.02-.17.03-.25.03ZM2.98,9.4c-.09,0-.17.04-.22.12-.04.06-.05.13-.03.2,0,.04.03.11.11.16.06.04.14.05.21.03.07-.02.12-.06.15-.11h0c.08-.12.04-.29-.08-.36-.04-.03-.09-.04-.14-.04Z"/>
      <path class="cls-1" d="M4.63,12.57c-.14,0-.27-.07-.34-.2-.11-.19-.05-.44.14-.55l6.95-4.14c.18-.11.25-.34.14-.52l-1.92-3.26c-.11-.19-.05-.44.14-.55.19-.11.44-.05.55.14l1.92,3.26c.33.56.14,1.28-.42,1.62l-6.95,4.14c-.06.04-.13.06-.2.06Z"/>
      <path class="cls-1" d="M1.97,12.79c-.22,0-.4-.18-.4-.4,0-.22.17-.4.4-.41l8.72-.11c.1,0,.2-.05.27-.12.04-.05.1-.13.09-.25v-3.36c0-.22.18-.4.4-.4s.4.18.4.4v3.34c.01.29-.1.58-.31.81-.22.23-.52.37-.84.38l-8.73.11h0Z"/>
      <rect class="cls-1" x="4.24" y="4.28" width=".8" height="5.26" transform="translate(-3.68 7.23) rotate(-58.36)"/>
    </g>
  </g>
</svg>
