<?xml version="1.0" encoding="UTF-8"?>
<svg id="Layer_2" data-name="Layer 2" xmlns="http://www.w3.org/2000/svg" viewBox="0 0 10.87 11.61">
  <defs>
    <style>
      .cls-1 {
        fill: #0053E5;
      }
    </style>
  </defs>
  <g id="Layer_2-2">
    <path class="cls-1" d="M9.94,11.54c.43,0,.78-.36.77-.79v-2.99s-6.84,3.86-6.84,3.86l6.07-.07Z"/>
    <path class="cls-1" d="M10.81,6.39l-1.63-2.77-4.02,6.45,5.5-3.1c.09-.06.17-.15.19-.26.03-.11.01-.23-.04-.33Z"/>
    <path class="cls-1" d="M8.74,2.12L5.45.07c-.08-.05-.16-.07-.25-.07-.16,0-.31.08-.4.22l-2.77,4.45,4.09,2.53,2.76-4.43c.07-.11.09-.23.06-.35-.03-.12-.1-.23-.21-.29Z"/>
    <path class="cls-1" d="M1.72,5.18L.07,7.83c-.06.1-.08.22-.06.34l.54,2.79c.03.13.1.24.21.31.11.07.25.09.37.05l2.74-.74c.12-.03.21-.1.28-.21h0s1.66-2.67,1.66-2.67L1.72,5.18ZM2.79,9.26c-.19.31-.6.4-.91.21-.31-.19-.4-.6-.21-.91.19-.31.6-.4.91-.21s.4.6.21.91Z"/>
  </g>
</svg>
