<?xml version="1.0" encoding="UTF-8"?>
<svg id="Layer_2" data-name="Layer 2" xmlns="http://www.w3.org/2000/svg" viewBox="0 0 14.15 10.89">
  <defs>
    <style>
      .cls-1 {
        fill: #0053E5;
      }
    </style>
  </defs>
  <g id="Layer_8">
    <path class="cls-1" d="M14.14,5.38c-.03-.12-.14-.19-.25-.22-.02,0-.03-.02-.05-.02l-.43-.12c-.08-.03-.28-.14-.28-.39V1.03c0-.52-.39-.94-.87-.94h-.22c-.13-.05-.27-.08-.42-.08H2.29c-.15,0-.29.03-.42.08h-.03c-.48,0-.88.42-.88.94v3.6c0,.25-.2.36-.24.38l-.47.13c-.19.05-.29.24-.24.43.04.14.16.23.3.24,0,0,0,0,0,0h0s.02.01.03.01c0,0,0,0,0,0l.39.11c.08.03.28.14.28.39v3.6c0,.52.39.94.87.94h.27s.08.02.12.02h9.33s.08-.02.12-.02h.58c.48,0,.88-.42.88-.94v-3.6c0-.25.2-.36.24-.38l.47-.13c.19-.05.29-.24.24-.43ZM10.27,8.18H3.97c-.19,0-.35-.16-.35-.35s.16-.35.35-.35h6.3c.19,0,.35.16.35.35s-.16.35-.35.35ZM10.27,5.83H3.97c-.19,0-.35-.16-.35-.35s.16-.35.35-.35h6.3c.19,0,.35.16.35.35s-.16.35-.35.35ZM10.27,3.47H3.97c-.19,0-.35-.16-.35-.35s.16-.35.35-.35h6.3c.19,0,.35.16.35.35s-.16.35-.35.35ZM12.79,5.57v-.14s.04.05.07.07c-.02.02-.04.05-.07.07Z"/>
  </g>
</svg>
