<?xml version="1.0" encoding="UTF-8"?>
<svg id="Layer_2" data-name="Layer 2" xmlns="http://www.w3.org/2000/svg" viewBox="0 0 14.25 10.88">
  <defs>
    <style>
      .cls-1 {
        fill: #323338;
      }
    </style>
  </defs>
  <g id="Layer_1-2">
    <g>
      <g>
        <path class="cls-1" d="M10.32,3.49h-6.3c-.22,0-.4-.18-.4-.4s.18-.4.4-.4h6.3c.22,0,.4.18.4.4s-.18.4-.4.4Z"/>
        <path class="cls-1" d="M10.32,5.84h-6.3c-.22,0-.4-.18-.4-.4s.18-.4.4-.4h6.3c.22,0,.4.18.4.4s-.18.4-.4.4Z"/>
        <path class="cls-1" d="M10.32,8.19h-6.3c-.22,0-.4-.18-.4-.4s.18-.4.4-.4h6.3c.22,0,.4.18.4.4s-.18.4-.4.4Z"/>
      </g>
      <g>
        <path class="cls-1" d="M.4,5.84c-.18,0-.34-.12-.39-.29-.06-.21.07-.43.28-.49l.47-.13s.21-.12.21-.33V.99c0-.55.41-.99.92-.99h2.58c.22,0,.4.18.4.4s-.18.4-.4.4H1.89c-.06,0-.12.08-.12.19v3.6c0,.47-.28.89-.74,1.09l-.52.15s-.07.01-.11.01Z"/>
        <path class="cls-1" d="M4.47,10.88H1.95c-.51,0-.92-.45-.92-.99v-3.6c0-.21-.16-.31-.26-.35l-.42-.11c-.21-.06-.34-.28-.28-.49.06-.21.28-.34.49-.28l.47.13c.51.21.79.63.79,1.11v3.6c0,.11.07.19.12.19h2.52c.22,0,.4.18.4.4s-.18.4-.4.4Z"/>
      </g>
      <g>
        <path class="cls-1" d="M12.36,10.88h-2.58c-.22,0-.4-.18-.4-.4s.18-.4.4-.4h2.58c.05,0,.12-.08.12-.19v-3.6c0-.47.29-.89.74-1.09l.52-.15c.21-.06.43.07.49.28.06.21-.07.43-.28.49l-.47.13s-.21.12-.21.33v3.6c0,.55-.41.99-.92.99Z"/>
        <path class="cls-1" d="M13.79,5.84s-.07,0-.11-.01l-.47-.13c-.51-.21-.79-.63-.79-1.11V.99c0-.11-.06-.19-.12-.19h-2.52c-.22,0-.4-.18-.4-.4s.18-.4.4-.4h2.52c.51,0,.92.44.92.99v3.6c0,.21.16.31.26.35l.42.11c.21.06.34.28.28.49-.05.18-.21.29-.39.29Z"/>
      </g>
    </g>
  </g>
</svg>
