<?xml version="1.0" encoding="UTF-8"?>
<svg id="Layer_2" data-name="Layer 2" xmlns="http://www.w3.org/2000/svg" viewBox="0 0 12.79 12.76">
  <defs>
    <style>
      .cls-1 {
        fill: #323338;
      }
    </style>
  </defs>
  <g id="Layer_2-2">
    <g id="Layer_1-2" >
      <path class="cls-1" d="M10.87,4.52h-1.96c-1.06,0-1.93-.87-1.93-1.93V.67c0-.22.18-.4.4-.4s.4.18.4.4v1.92c0,.62.51,1.13,1.13,1.13h1.96c.22,0,.4.18.4.4s-.18.4-.4.4Z"/>
      <path class="cls-1" d="M7.73,6.14h-3.95c-.22,0-.4-.18-.4-.4s.18-.4.4-.4h3.95c.22,0,.4.18.4.4s-.18.4-.4.4Z"/>
      <path class="cls-1" d="M7.73,8.55h-3.95c-.22,0-.4-.18-.4-.4s.18-.4.4-.4h3.95c.22,0,.4.18.4.4s-.18.4-.4.4Z"/>
      <path class="cls-1" d="M8.23,11.49H2.16c-1.19,0-2.16-.97-2.16-2.16V2.16C0,.97.97,0,2.16,0h5.02c.11,0,.21.04.28.12l3.93,3.96c.07.07.12.18.12.28v3.79c0,.22-.18.4-.4.4s-.4-.18-.4-.4v-3.63L7.01.8H2.16c-.75,0-1.36.61-1.36,1.36v7.17c0,.75.61,1.36,1.36,1.36h6.07c.22,0,.4.18.4.4s-.18.4-.4.4Z"/>
      <g>
        <path class="cls-1" d="M12.39,11.48h-2.56c-.22,0-.4-.18-.4-.4s.18-.4.4-.4h2.56c.22,0,.4.18.4.4s-.18.4-.4.4Z"/>
        <path class="cls-1" d="M11.11,12.76c-.22,0-.4-.18-.4-.4v-2.55c0-.22.18-.4.4-.4s.4.18.4.4v2.55c0,.22-.18.4-.4.4Z"/>
      </g>
    </g>
  </g>
</svg>
