<?xml version="1.0" encoding="UTF-8"?>
<svg id="Layer_2" data-name="Layer 2" xmlns="http://www.w3.org/2000/svg" viewBox="0 0 12.85 12.67">
  <defs>
    <style>
      .cls-1 {
        fill: #0053E5;
          }
    </style>
  </defs>
  <g id="Layer_9">
    <g>
      <path class="cls-1" d="M11.41,8.34v-4.03c0-.09-.04-.18-.1-.25L7.38.1c-.07-.07-.15-.1-.25-.1H2.11C.95,0,0,.95,0,2.11v7.17c0,1.16.95,2.11,2.11,2.11h6.26c.19,0,.35-.16.35-.35,0-1.29,1.05-2.34,2.34-2.34.19,0,.35-.16.35-.35ZM7.68,8.45h-3.95c-.19,0-.35-.16-.35-.35s.16-.35.35-.35h3.95c.19,0,.35.16.35.35s-.16.35-.35.35ZM7.68,6.04h-3.95c-.19,0-.35-.16-.35-.35s.16-.35.35-.35h3.95c.19,0,.35.16.35.35s-.16.35-.35.35ZM8.45,4.16c-.65,0-1.18-.53-1.18-1.18v-1.57l2.78,2.75h-1.6Z"/>
      <path class="cls-1" d="M12.5,10.69h-.93v-.93c0-.19-.16-.35-.35-.35s-.35.16-.35.35v.93h-.93c-.19,0-.35.16-.35.35s.16.35.35.35h.93v.93c0,.19.16.35.35.35s.35-.16.35-.35v-.93h.93c.19,0,.35-.16.35-.35s-.16-.35-.35-.35Z"/>
    </g>
  </g>
</svg>
