<?xml version="1.0" encoding="UTF-8"?>
<svg id="Layer_2" data-name="Layer 2" xmlns="http://www.w3.org/2000/svg" viewBox="0 0 14 14">
    <defs>
        <style>
            .cls-1 {
            fill: #0053E5;
            }
        </style>
    </defs>
    <g id="Layer_2-2">
        <path class="cls-1" d="M5.48984 4.77969C5.91984 4.17969 6.07984 3.67969 6.13984 3.42969H4.83984C4.89984 3.66969 5.05984 4.17969 5.48984 4.77969Z"/>
        <path class="cls-1" d="M11.3098 0.0498047H2.6598C1.4998 0.0498047 0.549805 0.999805 0.549805 2.1598V8.8398C0.549805 9.6698 1.0398 10.4098 1.7798 10.7498V12.6498C1.7798 12.8898 1.9298 13.0898 2.1598 13.1498C2.2098 13.1598 2.2598 13.1698 2.2998 13.1698C2.4798 13.1698 2.6398 13.0798 2.6998 12.9598L4.5698 10.9498H11.2998C12.4598 10.9498 13.4098 9.9998 13.4098 8.8398V2.1598C13.4098 0.999805 12.4598 0.0498047 11.2998 0.0498047H11.3098ZM6.9398 6.8698C6.3298 6.4998 5.8598 6.0998 5.4898 5.7198C5.1198 6.1098 4.6498 6.5098 4.0398 6.8698C3.9898 6.89981 3.9398 6.9098 3.8798 6.9098C3.7798 6.9098 3.6798 6.8598 3.6198 6.7698C3.5298 6.6298 3.5798 6.4398 3.7198 6.3598C4.3098 5.9998 4.7498 5.6198 5.0898 5.2498C4.4398 4.3998 4.2598 3.6698 4.2198 3.4398H3.4998C3.3298 3.4398 3.1998 3.3098 3.1998 3.1398C3.1998 2.9698 3.3298 2.8398 3.4998 2.8398H5.2298V2.0798C5.2298 1.9098 5.3598 1.7798 5.5298 1.7798C5.6998 1.7798 5.8298 1.9098 5.8298 2.0798V2.8398H7.5598C7.7298 2.8398 7.8598 2.9698 7.8598 3.1398C7.8598 3.3098 7.7298 3.4398 7.5598 3.4398H6.7498C6.7098 3.6698 6.5298 4.3998 5.8798 5.2498C6.2198 5.6198 6.6598 5.9998 7.2498 6.3598C7.3898 6.4498 7.43981 6.6298 7.3498 6.7698C7.2898 6.8598 7.1898 6.9098 7.0898 6.9098C7.0398 6.9098 6.9798 6.89981 6.9298 6.8698H6.9398ZM10.7898 8.56981C10.7198 8.6398 10.6398 8.6698 10.5498 8.6698C10.4798 8.6698 10.4098 8.64981 10.3498 8.5998C10.2898 8.5598 10.2498 8.4898 10.2098 8.4198L9.8898 7.6798H8.0698L7.7498 8.4198C7.7198 8.4998 7.6798 8.5598 7.6198 8.5998C7.5598 8.6398 7.4998 8.6598 7.4298 8.6598C7.3198 8.6598 7.2398 8.6298 7.1898 8.5798C7.1298 8.5198 7.1098 8.44981 7.1098 8.3498C7.1098 8.3098 7.1098 8.2698 7.1298 8.2298L8.64981 4.5898C8.6798 4.5098 8.7298 4.4498 8.7998 4.3998C8.85981 4.3598 8.93981 4.3398 9.0198 4.3398C9.0898 4.3398 9.1598 4.3598 9.2198 4.3998C9.27981 4.4398 9.32981 4.4998 9.35981 4.5798L10.8598 8.14981C10.8798 8.19981 10.8898 8.2498 10.8898 8.2998C10.8898 8.4098 10.8498 8.48981 10.7898 8.5598V8.56981Z"/>
        <path class="cls-1" d="M8.38965 6.9798H9.59965L8.98965 5.5498L8.38965 6.9798Z"/>
    </g>
</svg>
