<?xml version="1.0" encoding="UTF-8"?>
<svg id="Layer_2" data-name="Layer 2" xmlns="http://www.w3.org/2000/svg" viewBox="0 0 14 14">
    <defs>
        <style>
            .cls-1 {
            fill: none;
            stroke: currentColor;
            stroke-width: 0.8;
            stroke-linecap: round;
            stroke-linejoin: round;
            }
            .cls-2 {
            fill: #323338;
            }
        </style>
    </defs>
    <g id="Layer_2-2">
        <path class="cls-1" d="M10.96 1H2.31C1.31 1 0.5 1.81 0.5 2.81V9.49C0.5 10.29 1.02 10.95 1.73 11.2V13.3C1.73 13.52 2.03 13.6 2.14 13.41L4.1 11.3H10.96C11.96 11.3 12.77 10.49 12.77 9.49V2.81C12.77 1.81 11.96 1 10.96 1Z"/>
        <path class="cls-1" d="M3.16016 3.97021C3.16016 3.97021 3.38016 5.84022 5.74016 7.27022"/>
        <path class="cls-1" d="M5.12004 3.97021C5.12004 3.97021 4.90004 5.84022 2.54004 7.27022"/>
        <path class="cls-1" d="M6.21016 3.79004H2.16016"/>
        <path class="cls-1" d="M4.19043 2.72998V3.69998"/>
        <path class="cls-2" d="M11.1904 9.85986C11.1904 9.97986 11.1504 10.0799 11.0704 10.1599C10.9904 10.2399 10.9004 10.2799 10.8004 10.2799C10.7204 10.2799 10.6404 10.2499 10.5704 10.1999C10.5004 10.1499 10.4504 10.0799 10.4104 9.98986L10.0504 9.13986H7.96035L7.60035 9.98986C7.57035 10.0799 7.52035 10.1499 7.45035 10.1999C7.38035 10.2499 7.31035 10.2699 7.23035 10.2699C7.11035 10.2699 7.02035 10.2399 6.95035 10.1699C6.89035 10.1099 6.86035 10.0199 6.86035 9.89986C6.86035 9.85986 6.86035 9.80986 6.88035 9.76986L8.62035 5.57986C8.66035 5.48986 8.71035 5.40986 8.79035 5.35986C8.86035 5.30986 8.95035 5.28986 9.04035 5.29986C9.12035 5.29986 9.20035 5.31986 9.27035 5.36986C9.34035 5.41986 9.39035 5.48986 9.43035 5.57986L11.1504 9.67986C11.1704 9.73986 11.1904 9.79986 11.1904 9.84986V9.85986ZM8.30035 8.32986H9.70035L8.99035 6.68986L8.30035 8.32986Z"/>
    </g>
</svg>
