<?xml version="1.0" encoding="UTF-8"?>
<svg id="Layer_2" data-name="Layer 2" xmlns="http://www.w3.org/2000/svg" viewBox="0 0 12.35 13.63">
  <defs>
    <style>
      .cls-1 {
        fill: #323338;
      }
    </style>
  </defs>
  <g id="Layer_1-2">
    <g>
      <path class="cls-1" d="M1.77,9.05c-.1,0-.2-.04-.28-.12-.16-.16-.16-.41,0-.57l2.88-2.91c.08-.08.18-.12.28-.12h0c.11,0,.21.04.28.12l.92.94,2.46-3.02c.07-.09.19-.15.3-.15.12,0,.23.05.31.14l3.33,3.8c.15.17.13.42-.04.56-.17.14-.42.13-.56-.04l-3.02-3.44-2.44,3c-.07.09-.18.14-.29.15-.12,0-.23-.04-.3-.12l-.95-.97-2.59,2.62c-.08.08-.18.12-.28.12Z"/>
      <path class="cls-1" d="M4.42,4.95c-.73,0-1.32-.59-1.32-1.32s.59-1.32,1.32-1.32,1.32.59,1.32,1.32-.59,1.32-1.32,1.32ZM4.42,3.11c-.29,0-.52.23-.52.52s.23.52.52.52.52-.23.52-.52-.23-.52-.52-.52Z"/>
      <path class="cls-1" d="M9.22,13.64c-.08,0-.17,0-.25-.03L.96,11.88c-.67-.15-1.07-.82-.93-1.53l1.34-6.29c.05-.22.26-.35.47-.31.22.05.35.26.31.47l-1.34,6.29c-.06.28.08.54.32.59l8.02,1.73c.1.02.18,0,.26-.05.13-.08.24-.26.28-.48l.34-1.79c.04-.22.25-.36.47-.32.22.04.36.25.32.47l-.34,1.8c-.09.44-.32.8-.63,1-.19.12-.4.18-.62.18Z"/>
      <path class="cls-1" d="M10.13,10.97H3.58c-1.22,0-2.21-.99-2.21-2.21V2.21C1.37.99,2.36,0,3.58,0h6.55c1.22,0,2.21.99,2.21,2.21v6.55c0,1.22-.99,2.21-2.21,2.21ZM3.58.8c-.78,0-1.41.63-1.41,1.41v6.55c0,.78.63,1.41,1.41,1.41h6.55c.78,0,1.41-.63,1.41-1.41V2.21c0-.78-.63-1.41-1.41-1.41H3.58Z"/>
      <path class="cls-1" d="M7.82,13.11s-.06,0-.09-.01c-.21-.05-.35-.27-.3-.48l.5-2.09c.05-.21.26-.35.48-.3.21.05.35.27.3.48l-.5,2.09c-.04.18-.21.31-.39.31Z"/>
      <path class="cls-1" d="M2.31,12.16s-.06,0-.09-.01c-.21-.05-.35-.27-.3-.48l.33-1.39c.05-.21.27-.34.48-.3.21.05.35.27.3.48l-.33,1.39c-.04.18-.21.31-.39.31Z"/>
      <path class="cls-1" d="M1.98,10.23s-.06,0-.09,0l-1.36-.3c-.22-.05-.35-.26-.3-.48.05-.22.27-.35.48-.3l1.36.3c.22.05.35.26.3.48-.04.19-.21.31-.39.31Z"/>
      <path class="cls-1" d="M10.08,12.01s-.06,0-.08,0l-1.66-.36c-.22-.05-.35-.26-.31-.48.05-.22.26-.36.48-.31l1.66.36c.22.05.35.26.31.48-.04.19-.21.32-.39.32Z"/>
    </g>
  </g>
</svg>
