<?xml version="1.0" encoding="UTF-8"?>
<svg id="Layer_2" data-name="Layer 2" xmlns="http://www.w3.org/2000/svg" viewBox="0 0 12 13.57">
  <defs>
    <style>
      .cls-1 {
        fill: #0053E5;
      }
    </style>
  </defs>
  <g id="Layer_1-2">
    <g>
      <path class="cls-1" d="M3.31,11.2c-.26,0-.51-.05-.75-.13l-.25,1.05,4.95,1.07.31-1.32-2.8-.67h-1.47Z"/>
      <path class="cls-1" d="M.8,8.69v-1.67l-.51,2.38.67.16c-.1-.27-.17-.57-.17-.88Z"/>
      <path class="cls-1" d="M10.19,11.2h-1.74l-.04.15,1.76.42.11-.58s-.06,0-.09,0Z"/>
      <path class="cls-1" d="M7.95,13.34l.99.21c.46.1.92-.23,1.06-.87l.04-.23-1.79-.43-.31,1.31Z"/>
      <path class="cls-1" d="M1.5,10.41l-1.35-.32-.13.59c-.11.5.18.99.64,1.09l.96.21.29-1.2c-.15-.1-.29-.23-.42-.36Z"/>
    </g>
    <path class="cls-1" d="M11.85,7.61l-3.28-3.74-2.56,3.16c-.06.08-.16.12-.26.13-.09.01-.2-.03-.27-.11l-1.02-1.05-2.94,2.97c.14.86.88,1.52,1.78,1.52h6.88c1,0,1.81-.81,1.81-1.81v-1c-.05-.02-.11-.03-.15-.07Z"/>
    <path class="cls-1" d="M10.19,0H3.31c-1,0-1.81.81-1.81,1.81v6.2l2.72-2.75c.07-.07.16-.1.25-.1h0c.09,0,.18.04.25.11l1,1.02,2.58-3.18c.06-.08.16-.13.26-.13.1.01.2.04.27.12l3.17,3.62V1.81c0-1-.81-1.81-1.81-1.81ZM4.23,4.28c-.52,0-.95-.42-.95-.95s.42-.95.95-.95.95.42.95.95-.42.95-.95.95Z"/>
  </g>
</svg>
