<?xml version="1.0" encoding="UTF-8"?>
<svg id="Layer_2" data-name="Layer 2" xmlns="http://www.w3.org/2000/svg" viewBox="0 0 12.94 12.94">
  <defs>
    <style>
      .cls-1 {
        fill: #323338;
      }
    </style>
  </defs>
  <g id="Layer_1-2">
    <g>
      <g>
        <path class="cls-1" d="M4.62,9.15v-4.85c0-.17.11-.32.27-.38l5.27-1.82c.12-.04.26-.02.36.05.11.08.17.2.17.33v5.86l-.8-.17V3.04l-4.47,1.54-.02,4.9-.78-.33Z"/>
        <path class="cls-1" d="M5.02,6.7c-.17,0-.32-.1-.38-.27-.07-.21.04-.44.25-.51l5.27-1.78c.21-.07.44.04.51.25.07.21-.04.44-.25.51l-5.27,1.78s-.09.02-.13.02Z"/>
        <path class="cls-1" d="M3.71,10.92c-.93,0-1.69-.67-1.69-1.49s.76-1.49,1.69-1.49,1.69.67,1.69,1.49-.76,1.49-1.69,1.49ZM3.71,8.74c-.49,0-.89.31-.89.69s.4.69.89.69.89-.31.89-.69-.4-.69-.89-.69Z"/>
        <path class="cls-1" d="M9,9.83c-.93,0-1.69-.67-1.69-1.49s.76-1.49,1.69-1.49,1.69.67,1.69,1.49-.76,1.49-1.69,1.49ZM9,7.65c-.49,0-.89.31-.89.69s.4.69.89.69.89-.31.89-.69-.4-.69-.89-.69Z"/>
      </g>
      <path class="cls-1" d="M10.73,12.94H2.21c-1.22,0-2.21-.99-2.21-2.21V2.21C0,.99.99,0,2.21,0h8.52c1.22,0,2.21.99,2.21,2.21v8.52c0,1.22-.99,2.21-2.21,2.21ZM2.21.8c-.78,0-1.41.63-1.41,1.41v8.52c0,.78.63,1.41,1.41,1.41h8.52c.78,0,1.41-.63,1.41-1.41V2.21c0-.78-.63-1.41-1.41-1.41H2.21Z"/>
    </g>
  </g>
</svg>
