<?xml version="1.0" encoding="UTF-8"?>
<svg id="Layer_2" data-name="Layer 2" xmlns="http://www.w3.org/2000/svg" viewBox="0 0 12.73 12.73">
  <defs>
    <style>
      .cls-1 {
        fill: #0053E5;
      }
    </style>
  </defs>
  <g id="Layer_10" >
    <path class="cls-1" d="M10.62,12.73H2.11c-1.16,0-2.11-.95-2.11-2.11V2.11C0,.95.95,0,2.11,0h8.52c1.16,0,2.11.95,2.11,2.11v8.52c0,1.16-.95,2.11-2.11,2.11ZM2.11.6c-.83,0-1.51.68-1.51,1.51v8.52c0,.83.68,1.51,1.51,1.51h8.52c.83,0,1.51-.68,1.51-1.51V2.11c0-.83-.68-1.51-1.51-1.51H2.11Z"/>
    <g>
      <ellipse class="cls-1" cx="3.61" cy="9.33" rx=".99" ry=".79"/>
      <polygon class="cls-1" points="9.89 2.8 5.22 4.41 5.22 5.78 9.89 4.2 9.89 2.8"/>
      <path class="cls-1" d="M10.62.3H2.11C1.11.3.3,1.11.3,2.11v8.52c0,1,.81,1.81,1.81,1.81h8.52c1,0,1.81-.81,1.81-1.81V2.11c0-1-.81-1.81-1.81-1.81ZM8.9,9.63c-.88,0-1.59-.62-1.59-1.39s.71-1.39,1.59-1.39c.38,0,.72.12.99.31v-2.33l-4.67,1.58v2.63s-.03.06-.04.09c0,.06.02.12.02.19,0,.77-.71,1.39-1.59,1.39s-1.59-.62-1.59-1.39.71-1.39,1.59-1.39c.39,0,.73.12,1.01.32v-4.06c0-.13.08-.24.2-.28l5.26-1.82c.09-.03.19-.02.27.04.08.06.13.15.13.24v5.69s-.01.02-.01.03c0,.05.02.09.02.14,0,.77-.71,1.39-1.59,1.39Z"/>
      <ellipse class="cls-1" cx="8.9" cy="8.24" rx=".99" ry=".79"/>
    </g>
  </g>
</svg>
