<?xml version="1.0" encoding="UTF-8"?>
<svg id="Layer_2" data-name="Layer 2" xmlns="http://www.w3.org/2000/svg" viewBox="0 0 12.91 11.29">
  <defs>
    <style>
      .cls-1 {
        fill: #0053E5;
      }
    </style>
  </defs>
  <g id="Layer_4_copy">
    <g>
      <path class="cls-1" d="M1.81.92c-1,0-1.81.81-1.81,1.81v6.75c0,1,.81,1.81,1.81,1.81h1.22V.92h-1.22Z"/>
      <path class="cls-1" d="M10.24,2.05c-.27-.66-.92-1.13-1.68-1.13H3.73v4.79h4.04l2.47-3.66Z"/>
      <path class="cls-1" d="M12.28.14c-.5-.26-1.06-.15-1.36.27l-4.22,6.23.28.19c.17-.05.32-.07.47-.05L11.49.81c.15-.21.43-.07.46-.05.03.02.32.18.27.37l-3.91,6.24c.05.09.09.18.12.28l.38.24L12.85,1.43c.17-.49-.06-1.02-.57-1.29Z"/>
      <path class="cls-1" d="M9.58,6.01v.39h-.25l-.81,1.29-.09-.05c.12.41.04.9-.33,1.29-.72.77-2.39,1.1-3.14.22.22-.12.47-.29.64-.47.49-.54.36-1.32,1.09-1.74.1-.06.21-.1.31-.13l.29-.42h-3.56v4.88h4.83c1,0,1.81-.81,1.81-1.81v-4.73l-.79,1.26Z"/>
      <path class="cls-1" d="M7.35,6.77c.98,0,1.57,1.31.76,2.17-.42.45-1.16.75-1.85.75-.5,0-.98-.16-1.29-.52.22-.12.47-.29.64-.47.49-.54.36-1.32,1.09-1.74.23-.13.45-.19.65-.19M7.35,6.07h0c-.34,0-.67.09-1,.28-.66.37-.86.94-1.01,1.35-.08.22-.15.4-.26.53-.09.1-.27.23-.44.32l-.78.41.58.67c.43.49,1.07.77,1.82.77.88,0,1.81-.38,2.36-.97.58-.61.73-1.46.4-2.21-.3-.7-.95-1.14-1.67-1.14h0Z"/>
    </g>
  </g>
</svg>
