<?xml version="1.0" encoding="UTF-8"?>
<svg id="Layer_2" data-name="Layer 2" xmlns="http://www.w3.org/2000/svg" viewBox="0 0 13.36 11.74">
  <defs>
    <style>
      .cls-1 {
        fill: #323338;
      }
    </style>
  </defs>
  <g id="Layer_1-2">
    <g>
      <path class="cls-1" d="M8.96,11.73H2.21c-1.22,0-2.21-.99-2.21-2.21V2.78C0,1.56.99.57,2.21.57h6.75c.81,0,1.57.45,1.96,1.18l.19.35-.7.38-.19-.35c-.26-.47-.74-.76-1.26-.76H2.21c-.78,0-1.41.63-1.41,1.41v6.74c0,.78.63,1.41,1.41,1.41h6.75c.78,0,1.41-.63,1.41-1.41v-4.72h.8v4.72c0,1.22-.99,2.21-2.21,2.21Z"/>
      <rect class="cls-1" x="3.38" y=".89" width=".8" height="10.52"/>
      <rect class="cls-1" x="3.38" y="5.71" width="4.63" height=".8"/>
      <g>
        <path class="cls-1" d="M8.92,8.15c-.07,0-.15-.02-.21-.06-.19-.12-.24-.36-.13-.55L12.58,1.16c.04-.14-.21-.28-.25-.3-.03-.02-.28-.14-.4.04l-3.99,5.91c-.12.18-.37.23-.56.11-.18-.12-.23-.37-.11-.56L11.28.44c.32-.45.91-.56,1.43-.29.53.28.77.84.59,1.35l-4.04,6.46c-.08.12-.21.19-.34.19Z"/>
        <path class="cls-1" d="M6.66,10.15s-.04,0-.06,0c-.63-.01-1.18-.25-1.53-.67-.08-.09-.11-.21-.09-.33.02-.12.1-.22.2-.28.22-.12.42-.27.54-.39.15-.16.22-.37.31-.62.14-.39.32-.88.87-1.19.74-.42,1.54-.28,2.03.35.45.58.55,1.54-.13,2.26-.49.52-1.34.87-2.14.87ZM6.07,9.24c.19.08.39.1.55.11.59,0,1.25-.24,1.6-.62.39-.41.32-.92.08-1.22-.12-.15-.45-.46-1.01-.15-.28.16-.37.39-.51.77-.1.28-.22.61-.48.89-.08.08-.16.15-.24.22Z"/>
      </g>
    </g>
  </g>
</svg>
