<?xml version="1.0" encoding="UTF-8"?>
<svg id="Layer_2" data-name="Layer 2" xmlns="http://www.w3.org/2000/svg" viewBox="0 0 13.13 12.39">
  <defs>
    <style>
      .cls-1 {
        fill: #323338;
      }
    </style>
  </defs>
  <g id="Layer_1-2">
    <g>
      <path class="cls-1" d="M10.67,12.39c-.22,0-.4-.18-.4-.4V.4c0-.22.18-.4.4-.4s.4.18.4.4v11.59c0,.22-.18.4-.4.4Z"/>
      <path class="cls-1" d="M12.73,10.13c-.22,0-.4-.18-.4-.4V2.66c0-.22.18-.4.4-.4s.4.18.4.4v7.07c0,.22-.18.4-.4.4Z"/>
      <path class="cls-1" d="M2.45,8.76c-.22,0-.4-.18-.4-.4v-4.33c0-.22.18-.4.4-.4s.4.18.4.4v4.33c0,.22-.18.4-.4.4Z"/>
      <path class="cls-1" d="M6.56,8.71c-.22,0-.4-.18-.4-.4v-4.23c0-.22.18-.4.4-.4s.4.18.4.4v4.23c0,.22-.18.4-.4.4Z"/>
      <path class="cls-1" d="M8.62,10.32c-.22,0-.4-.18-.4-.4V2.47c0-.22.18-.4.4-.4s.4.18.4.4v7.45c0,.22-.18.4-.4.4Z"/>
      <path class="cls-1" d="M.4,11.46c-.22,0-.4-.18-.4-.4V1.33c0-.22.18-.4.4-.4s.4.18.4.4v9.73c0,.22-.18.4-.4.4Z"/>
      <path class="cls-1" d="M4.51,7.94c-.22,0-.4-.18-.4-.4v-2.69c0-.22.18-.4.4-.4s.4.18.4.4v2.69c0,.22-.18.4-.4.4Z"/>
    </g>
  </g>
</svg>
