<?xml version="1.0" encoding="UTF-8"?>
<svg id="Layer_2" data-name="Layer 2" xmlns="http://www.w3.org/2000/svg" viewBox="0 0 12.74 12.73">
  <defs>
    <style>
      .cls-1 {
        fill: #0053E5;
      }
    </style>
  </defs>
  <g id="Layer_11" >
    <path class="cls-1" d="M10.62,0H2.11C.95,0,0,.95,0,2.11v8.52c0,1.16.95,2.11,2.11,2.11h8.51c1.16,0,2.11-.95,2.11-2.11V2.11c0-1.16-.95-2.11-2.11-2.11ZM1.48,8.53c0,.19-.16.35-.35.35s-.35-.16-.35-.35v-4.33c0-.19.16-.35.35-.35s.35.16.35.35v4.33ZM3.53,7.71c0,.19-.16.35-.35.35s-.35-.16-.35-.35v-2.69c0-.19.16-.35.35-.35s.35.16.35.35v2.69ZM5.59,8.48c0,.19-.16.35-.35.35s-.35-.16-.35-.35v-4.23c0-.19.16-.35.35-.35s.35.16.35.35v4.23ZM7.64,10.09c0,.19-.16.35-.35.35s-.35-.16-.35-.35V2.64c0-.19.16-.35.35-.35s.35.16.35.35v7.45ZM9.7,12.16c0,.19-.16.35-.35.35s-.35-.16-.35-.35V.57c0-.19.16-.35.35-.35s.35.16.35.35v11.59ZM11.75,9.9c0,.19-.16.35-.35.35s-.35-.16-.35-.35V2.83c0-.19.16-.35.35-.35s.35.16.35.35v7.07Z"/>
  </g>
</svg>
