<svg xmlns="http://www.w3.org/2000/svg" width="24" height="24" viewBox="0 0 24 24" fill="none">
    <g clip-path="url(#clip0_9661_1974)">
        <path d="M22.5329 1.80469V2.85938H1.46709V1.80469C1.46709 1.2334 1.98318 0.75 2.5931 0.75H21.4069C22.0168 0.75 22.5329 1.2334 22.5329 1.80469ZM23.2836 5.32031V6.375H0.716416V5.32031C0.716416 4.74902 1.2325 4.26562 1.84243 4.26562H22.1576C22.7675 4.26562 23.2836 4.74902 23.2836 5.32031ZM22.5329 7.78125C23.6589 7.78125 24.0812 8.74805 23.9873 9.31934L22.9082 20.7012C22.7675 22.1514 21.4538 23.25 19.9055 23.25H4.09445C2.54619 23.25 1.2325 22.1514 1.09175 20.7012L0.012658 9.31934C-0.0811764 8.74805 0.341078 7.78125 1.46709 7.78125H22.5329ZM20.6562 20.5254L21.6884 9.89062H2.3116L3.34378 20.5254C3.3907 20.877 3.71912 21.1406 4.09445 21.1406H19.9055C20.2809 21.1406 20.6093 20.877 20.6562 20.5254Z" fill="white"/>
    </g>
    <defs>
        <clipPath id="clip0_9661_1974">
            <rect width="24" height="24" fill="white"/>
        </clipPath>
    </defs>
</svg>
