<svg width="251" height="255" viewBox="0 0 251 255" fill="none" xmlns="http://www.w3.org/2000/svg">
<g clip-path="url(#clip0_7018_45046)">
<path d="M45.6599 126.79C45.6599 112.38 34.49 101.92 19.11 101.92H3.05176e-05V151.92H19.11C34.49 151.92 45.6599 141.4 45.6599 126.92V126.79ZM33.43 127.07C33.43 135.55 27.68 141.24 19.11 141.24H11.73V112.61H19.11C27.68 112.61 33.43 118.36 33.43 126.93V127.07Z" fill="#F8F6F1"/>
<path d="M219.66 151.9H231.39V132.09V132.01L231.44 131.95L250.64 101.89H237.24L225.83 120.77L225.6 121.14L225.38 120.77L214.16 101.89H200.42L219.62 132.16L219.66 132.22V132.3V151.9Z" fill="#F8F6F1"/>
<path d="M22.1599 51.41C33.8199 51.41 41.06 45.4098 41.06 35.7298V35.5899C41.06 26.4299 34.5599 22.9 24.7799 20.41C16.0799 18.23 14.32 17.22 14.32 14.41V14.2699C14.32 11.9599 16.67 10.4698 20.32 10.4698C24.2 10.4698 28.38 12.0198 33.09 15.2198L33.49 15.4898L39.76 6.60996L39.4099 6.32993C34.0096 2.10883 27.3233 -0.12945 20.47 -0.0101613C9.84 -0.0101613 2.47 6.26985 2.47 15.2498V15.39C2.47 25.78 9.83 28.3899 19.47 30.8499C27.87 32.9499 29.22 34.27 29.22 36.63V36.7699C29.22 39.3699 26.69 40.9198 22.46 40.9198C17.39 40.9198 12.7299 39.0599 7.77994 35.0699L7.40994 34.7699L0.279938 43.12L0.630035 43.4298C6.61177 48.5953 14.2565 51.4291 22.1599 51.41Z" fill="#F8F6F1"/>
<path d="M22.1599 254.08C33.8199 254.08 41.06 248.08 41.06 238.4V238.26C41.06 229.11 34.5599 225.57 24.7899 223.08C16.0799 220.9 14.32 219.9 14.32 217.08V216.94C14.32 214.63 16.67 213.14 20.32 213.14C24.2 213.14 28.38 214.69 33.09 217.89L33.49 218.16L39.76 209.28L39.4099 209C34.0061 204.785 27.3222 202.548 20.47 202.66C9.84 202.66 2.47 208.94 2.47 217.92V218.06C2.47 228.45 9.83 231.12 19.47 233.52C27.87 235.62 29.22 236.95 29.22 239.3V239.44C29.22 242.04 26.69 243.59 22.46 243.59C17.39 243.59 12.7299 241.74 7.77994 237.75L7.40994 237.45L0.279938 245.8L0.630035 246.1C6.61177 251.266 14.2565 254.099 22.1599 254.08Z" fill="#F8F6F1"/>
<path d="M237.91 50.63H247.8V0.630005H236.2V29.13V29.91L235.73 29.29L213.92 0.630005H203.26V50.63H214.86V21.15V20.37L215.33 20.99L237.91 50.63Z" fill="#F8F6F1"/>
<path d="M219.66 253.2H231.39V233.39V233.31L231.44 233.25L250.64 203.2H237.24L225.83 222.07L225.6 222.45L225.38 222.07L214.16 203.2H200.42L219.62 233.46L219.66 233.53V233.6V253.2Z" fill="#F8F6F1"/>
<path d="M123.93 51.4101C130.78 51.4101 136.17 49.51 139.93 45.77C143.88 41.87 145.88 36.16 145.88 28.77V0.610062H134.19V29.1899C134.19 36.4799 130.6 40.4899 124.07 40.4899C117.54 40.4899 113.96 36.35 113.96 28.84V0.610062H102.23V29.1201C102.23 43.2901 110.14 51.4101 123.93 51.4101Z" fill="#F8F6F1"/>
<path d="M113.77 203.2H102.03V253.2H113.77V230.46V229.71L114.23 230.29L132.66 253.2H147.69L125.59 226.93L125.44 226.76L125.6 226.59L146.51 203.2H131.83L114.23 223.25L113.77 223.78V223.08V203.2Z" fill="#F8F6F1"/>
<path d="M130.81 110.1L106.68 151.9H154.94L130.81 110.1Z" fill="url(#paint0_linear_7018_45046)"/>
<path d="M123.94 98.2L92.94 151.9H106.68L130.81 110.1L123.94 98.2Z" fill="#F8F6F1"/>
</g>
<defs>
<linearGradient id="paint0_linear_7018_45046" x1="114.26" y1="128.36" x2="146.76" y2="155.86" gradientUnits="userSpaceOnUse">
<stop stop-color="#E689F1"/>
<stop offset="0.142857" stop-color="#D47FEF"/>
<stop offset="0.285714" stop-color="#C175EE"/>
<stop offset="0.428571" stop-color="#AB6DEC"/>
<stop offset="0.571429" stop-color="#9365EB"/>
<stop offset="0.714286" stop-color="#775EE9"/>
<stop offset="0.857143" stop-color="#5358E7"/>
<stop offset="1" stop-color="#0053E5"/>
</linearGradient>
<clipPath id="clip0_7018_45046">
<rect width="250.64" height="254.08" fill="white"/>
</clipPath>
</defs>
</svg>
