<?xml version="1.0" encoding="utf-8"?>
<!-- Generator: Adobe Illustrator 26.0.0, SVG Export Plug-In . SVG Version: 6.00 Build 0)  -->
<svg version="1.1" id="Layer_1" xmlns="http://www.w3.org/2000/svg" xmlns:xlink="http://www.w3.org/1999/xlink" x="0px" y="0px"
	 viewBox="0 0 262 23" style="enable-background:new 0 0 262 23;" xml:space="preserve">
<style type="text/css">
	.st0{fill:#03194F;}
	.st1{fill:url(#SVGID_1_);}
</style>
<g>
	<g>
		<path class="st0" d="M2.2,19.6c2.5,2.2,5.7,3.3,9.1,3.3c4.9,0,8-2.5,8-6.6v-0.1c0-3.9-2.7-5.4-6.9-6.4C8.9,8.9,8.1,8.5,8.1,7.4
			V7.3c0-0.9,0.9-1.5,2.4-1.5c1.6,0,3.3,0.6,5.3,2l0.2,0.1L16,8l0.1-0.1l2.6-3.7l0.1-0.1l-0.1-0.1l-0.2-0.1c-2.3-1.8-4.9-2.7-8-2.7
			c-4.5,0-7.6,2.7-7.6,6.5v0.1c0,4.4,3.1,5.5,7.2,6.5c3.4,0.9,4,1.4,4,2.3v0.1c0,1-1,1.6-2.7,1.6c-2.1,0-4-0.8-6-2.4l-0.2-0.1
			l-0.1-0.1L5,15.8l-3,3.5L2,19.4l0.1,0.1L2.2,19.6z"/>
	</g>
	<g>
		<polygon class="st0" points="67.3,22.6 67.3,10.2 76.8,22.6 81.1,22.6 81.1,1.5 76,1.5 76,13.5 66.9,1.5 62.3,1.5 62.3,22.6 		"/>
	</g>
	<g>
		<path class="st0" d="M40,22.9c2.9,0,5.2-0.8,6.8-2.4c1.7-1.6,2.5-4.1,2.5-7.2V1.5h-5.1v12c0,3-1.5,4.6-4.1,4.6
			c-2.6,0-4.1-1.7-4.1-4.7V1.5h-5.1v12C30.9,19.5,34.2,22.9,40,22.9z"/>
	</g>
	<g>
		<path class="st0" d="M193.1,9.8c-3.6-0.9-4.3-1.3-4.3-2.4V7.3c0-0.9,0.9-1.5,2.4-1.5c1.6,0,3.3,0.6,5.3,2l0.2,0.1l0.1,0.1l0.1-0.1
			l2.6-3.7l0.1-0.1l-0.1-0.1l-0.2-0.1c-2.3-1.8-4.9-2.7-8-2.7c-4.5,0-7.6,2.7-7.6,6.5v0.1c0,4.4,3.1,5.5,7.2,6.5
			c3.4,0.9,4,1.4,4,2.3v0.1c0,1-1,1.6-2.7,1.6c-2.1,0-4-0.8-6-2.4l-0.2-0.1l-0.1-0.1l-0.1,0.1l-3,3.5l-0.1,0.1l0.1,0.1l0.2,0.1
			c2.5,2.2,5.7,3.3,9.1,3.3c4.9,0,8-2.5,8-6.6v-0.1C199.9,12.3,197.2,10.8,193.1,9.8z"/>
	</g>
	<g>
		<polygon class="st0" points="254.2,1.5 254.2,1.5 254.1,1.5 249.4,9.4 244.7,1.5 244.7,1.5 244.6,1.5 238.9,1.5 238.7,1.5 
			238.8,1.7 246.8,14.3 246.8,22.5 246.8,22.6 246.9,22.6 251.8,22.6 251.9,22.6 251.9,22.5 251.9,14.2 259.9,1.7 260,1.5 
			259.8,1.5 		"/>
	</g>
	<g>
		<polygon class="st0" points="221.8,11.4 230.6,1.5 224.2,1.5 216.9,9.9 216.9,1.6 216.9,1.5 216.8,1.5 211.8,1.5 211.7,1.5 
			211.7,1.6 211.7,22.5 211.7,22.6 211.8,22.6 216.8,22.6 216.9,22.6 216.9,22.5 216.9,13 224.6,22.6 231.1,22.6 		"/>
	</g>
	<g>
		<path class="st0" d="M102.1,1.5h-8H94v0.1v20.9v0.1h0.1h8c6.5,0,11.2-4.4,11.2-10.5V12C113.3,5.9,108.6,1.5,102.1,1.5z
			 M107.9,12.1c0,3.5-2.4,5.8-5.9,5.8h-3V6.2h3C105.6,6.2,107.9,8.6,107.9,12.1L107.9,12.1z"/>
	</g>
	<g>
		<polygon class="st0" points="160.8,14.3 160.8,22.5 160.8,22.6 160.9,22.6 165.9,22.6 166,22.6 166,22.5 166,14.2 174,1.7 
			174.1,1.5 173.9,1.5 168.3,1.5 168.2,1.5 168.2,1.6 163.4,9.5 158.8,1.6 158.7,1.5 158.7,1.5 152.9,1.5 152.7,1.5 152.8,1.7 		"/>
	</g>
	<g>
		<linearGradient id="SVGID_1_" gradientUnits="userSpaceOnUse" x1="130.9393" y1="12.05" x2="144.6711" y2="25.7818">
			<stop  offset="0" style="stop-color:#E689F1"/>
			<stop  offset="0.1499" style="stop-color:#DD84F0"/>
			<stop  offset="0.311" style="stop-color:#C477EE"/>
			<stop  offset="0.4665" style="stop-color:#9F69EB"/>
			<stop  offset="0.6331" style="stop-color:#715DE9"/>
			<stop  offset="0.7998" style="stop-color:#3B56E6"/>
			<stop  offset="1" style="stop-color:#0053E5"/>
		</linearGradient>
		<polygon class="st1" points="137.8,5.2 127.8,22.6 147.9,22.6 		"/>
		<g>
			<polygon class="st0" points="134.9,0.1 121.9,22.6 127.8,22.6 137.8,5.2 			"/>
		</g>
	</g>
</g>
</svg>
