<svg viewBox="0 0 18 18" fill="white" xmlns="http://www.w3.org/2000/svg">
<path d="M13.0664 8.36758C13.2211 8.27188 13.2984 8.13898 13.2984 7.96886C13.2984 7.79874 13.2211 7.66445 13.0664 7.56602L8.93203 4.9082C8.77734 4.7957 8.61562 4.78556 8.44687 4.87776C8.27812 4.96997 8.19375 5.11371 8.19375 5.30898V10.6246C8.19375 10.8199 8.27812 10.9636 8.44687 11.0558C8.61562 11.148 8.77734 11.1379 8.93203 11.0254L13.0664 8.36758ZM4.73438 15.1387C4.39687 15.1387 4.10156 15.0121 3.84844 14.759C3.59531 14.5059 3.46875 14.2105 3.46875 13.873V2.06055C3.46875 1.72305 3.59531 1.42773 3.84844 1.17461C4.10156 0.921484 4.39687 0.794922 4.73438 0.794922H16.5469C16.8844 0.794922 17.1797 0.921484 17.4328 1.17461C17.6859 1.42773 17.8125 1.72305 17.8125 2.06055V13.873C17.8125 14.2105 17.6859 14.5059 17.4328 14.759C17.1797 15.0121 16.8844 15.1387 16.5469 15.1387H4.73438ZM4.73438 13.873H16.5469V2.06055H4.73438V13.873ZM2.20312 17.6699C1.86563 17.6699 1.57031 17.5434 1.31719 17.2902C1.06406 17.0371 0.9375 16.7418 0.9375 16.4043V3.95898C0.9375 3.77969 0.998496 3.62939 1.12049 3.50811C1.24249 3.38682 1.39367 3.32617 1.574 3.32617C1.75436 3.32617 1.9043 3.38682 2.02383 3.50811C2.14336 3.62939 2.20312 3.77969 2.20312 3.95898V16.4043H14.6484C14.8277 16.4043 14.978 16.4653 15.0993 16.5873C15.2206 16.7093 15.2812 16.8605 15.2812 17.0408C15.2812 17.2212 15.2206 17.3711 15.0993 17.4906C14.978 17.6102 14.8277 17.6699 14.6484 17.6699H2.20312Z" fill="white"/>
</svg>
